<svg width="207" height="105" viewBox="0 0 207 105" fill="none" xmlns="http://www.w3.org/2000/svg">
<path d="M196.379 103.951C197.832 104.333 199.319 103.465 199.701 102.012L205.927 78.3312C206.309 76.878 205.441 75.3903 203.987 75.0083C202.534 74.6263 201.047 75.4946 200.665 76.9478L195.131 97.9972L174.081 92.4635C172.628 92.0815 171.14 92.9498 170.758 94.403C170.376 95.8561 171.245 97.3438 172.698 97.7259L196.379 103.951ZM1.2896 7.78823C101.797 -2.92705 162.57 47.6069 194.721 102.692L199.42 99.9487C166.423 43.4142 103.777 -8.61011 0.71278 2.37771L1.2896 7.78823Z" fill="url(#paint0_linear_1874_2841)"/>
<defs>
<linearGradient id="paint0_linear_1874_2841" x1="9.19786" y1="-10.9585" x2="203.411" y2="104.656" gradientUnits="userSpaceOnUse">
<stop stop-color="white" stop-opacity="0"/>
<stop offset="1" stop-color="white"/>
</linearGradient>
</defs>
</svg>
