<svg width="33" height="33" viewBox="0 0 33 33" fill="none" xmlns="http://www.w3.org/2000/svg">
<path d="M23.0156 31.5H22.9876C22.7872 31.4944 22.593 31.4287 22.4304 31.3113C22.2677 31.194 22.1441 31.0305 22.0756 30.842L18.9396 22.217L16.9346 26.894C16.8575 27.0738 16.7294 27.2271 16.566 27.3348C16.4027 27.4425 16.2113 27.5 16.0156 27.5H12.0156V25.5H15.3556L18.0956 19.106C18.2586 18.729 18.6446 18.49 19.0436 18.5C19.2441 18.5056 19.4383 18.5713 19.6009 18.6886C19.7635 18.806 19.8871 18.9695 19.9556 19.158L23.0916 27.784L25.0966 23.106C25.1737 22.9262 25.3019 22.7729 25.4652 22.6652C25.6286 22.5574 25.82 22.5 26.0156 22.5H30.0156V24.5H26.6756L23.9356 30.894C23.8585 31.074 23.7301 31.2274 23.5666 31.3351C23.403 31.4428 23.2115 31.5002 23.0156 31.5Z" fill="#706DB4"/>
<path d="M9.01562 25.5H4.01562V10.5H28.0156V19.5H30.0156V10.5C30.0156 9.397 29.1186 8.5 28.0156 8.5H22.0156V4.5C22.0156 3.397 21.1186 2.5 20.0156 2.5H12.0156C10.9126 2.5 10.0156 3.397 10.0156 4.5V8.5H4.01562C2.91262 8.5 2.01562 9.397 2.01562 10.5V25.5C2.01562 26.603 2.91262 27.5 4.01562 27.5H9.01562V25.5ZM12.0156 4.5H20.0156V8.5H12.0156V4.5Z" fill="#706DB4"/>
</svg>
