<svg width="33" height="33" viewBox="0 0 33 33" fill="none" xmlns="http://www.w3.org/2000/svg">
<path d="M15.2866 15.0165C14.056 15.0165 12.853 14.6515 11.8297 13.9678C10.8065 13.2841 10.009 12.3124 9.53803 11.1754C9.06708 10.0384 8.94386 8.78734 9.18395 7.58035C9.42403 6.37336 10.0166 5.26466 10.8868 4.39447C11.757 3.52428 12.8657 2.93167 14.0727 2.69158C15.2797 2.4515 16.5308 2.57472 17.6678 3.04566C18.8047 3.51661 19.7765 4.31413 20.4602 5.33737C21.1439 6.3606 21.5088 7.56361 21.5088 8.79425C21.5088 10.4445 20.8533 12.0271 19.6864 13.194C18.5195 14.3609 16.9368 15.0165 15.2866 15.0165ZM15.2866 4.42091C14.4076 4.42091 13.5483 4.68158 12.8174 5.16994C12.0865 5.6583 11.5169 6.35243 11.1805 7.16454C10.8441 7.97666 10.7561 8.87029 10.9276 9.73243C11.0991 10.5946 11.5223 11.3865 12.1439 12.0081C12.7655 12.6296 13.5574 13.0529 14.4195 13.2244C15.2817 13.3959 16.1753 13.3079 16.9874 12.9715C17.7995 12.6351 18.4937 12.0654 18.982 11.3346C19.4704 10.6037 19.7311 9.74439 19.7311 8.86536C19.7311 8.28171 19.6161 7.70377 19.3927 7.16454C19.1694 6.62532 18.842 6.13537 18.4293 5.72266C18.0166 5.30996 17.5266 4.98258 16.9874 4.75923C16.4482 4.53587 15.8703 4.42091 15.2866 4.42091ZM20.2377 16.092C15.4275 15.0089 10.3949 15.5303 5.90883 17.5765C5.29185 17.8712 4.77129 18.3351 4.40776 18.9142C4.04424 19.4934 3.85272 20.1638 3.8555 20.8476V26.1365C3.8555 26.2532 3.87849 26.3688 3.92316 26.4766C3.96783 26.5845 4.03331 26.6825 4.11585 26.765C4.19839 26.8475 4.29638 26.913 4.40422 26.9577C4.51207 27.0024 4.62766 27.0254 4.74439 27.0254C4.86112 27.0254 4.97671 27.0024 5.08455 26.9577C5.1924 26.913 5.29039 26.8475 5.37293 26.765C5.45547 26.6825 5.52094 26.5845 5.56561 26.4766C5.61028 26.3688 5.63328 26.2532 5.63328 26.1365V20.8476C5.62554 20.5015 5.71898 20.1608 5.90215 19.8671C6.08531 19.5734 6.35023 19.3395 6.66439 19.1942C9.36676 17.9462 12.31 17.3059 15.2866 17.3187C16.9544 17.3167 18.6165 17.5137 20.2377 17.9054V16.092ZM20.3622 24.5454H25.8199V25.7898H20.3622V24.5454Z" fill="#706DB4"/>
<path d="M30.1665 19.2654H25.571V21.0432H29.2776V28.4832H16.6821V21.0432H22.2821V21.4165C22.2821 21.6522 22.3757 21.8783 22.5424 22.045C22.7091 22.2117 22.9352 22.3054 23.171 22.3054C23.4067 22.3054 23.6328 22.2117 23.7995 22.045C23.9662 21.8783 24.0599 21.6522 24.0599 21.4165V17.9587C24.0599 17.723 23.9662 17.4969 23.7995 17.3302C23.6328 17.1635 23.4067 17.0698 23.171 17.0698C22.9352 17.0698 22.7091 17.1635 22.5424 17.3302C22.3757 17.4969 22.2821 17.723 22.2821 17.9587V19.2654H15.7932C15.5574 19.2654 15.3313 19.359 15.1646 19.5257C14.9979 19.6924 14.9043 19.9185 14.9043 20.1543V29.372C14.9043 29.6078 14.9979 29.8339 15.1646 30.0006C15.3313 30.1673 15.5574 30.2609 15.7932 30.2609H30.1665C30.4023 30.2609 30.6284 30.1673 30.7951 30.0006C30.9618 29.8339 31.0554 29.6078 31.0554 29.372V20.1543C31.0554 19.9185 30.9618 19.6924 30.7951 19.5257C30.6284 19.359 30.4023 19.2654 30.1665 19.2654Z" fill="#706DB4"/>
</svg>
