<svg width="41" height="41" viewBox="0 0 41 41" fill="none" xmlns="http://www.w3.org/2000/svg">
<path d="M10.2656 9.66667C10.2656 8.89312 10.5729 8.15126 11.1199 7.60428C11.6669 7.0573 12.4087 6.75001 13.1823 6.75001C13.9558 6.75001 14.6977 7.0573 15.2447 7.60428C15.7917 8.15126 16.099 8.89312 16.099 9.66667C16.099 10.4402 15.7917 11.1821 15.2447 11.7291C14.6977 12.276 13.9558 12.5833 13.1823 12.5833C12.4087 12.5833 11.6669 12.276 11.1199 11.7291C10.5729 11.1821 10.2656 10.4402 10.2656 9.66667ZM13.1823 4.66667C12.5257 4.66667 11.8755 4.796 11.2689 5.04727C10.6622 5.29855 10.1111 5.66685 9.64676 6.13114C9.18247 6.59543 8.81417 7.14663 8.56289 7.75325C8.31162 8.35988 8.18229 9.01006 8.18229 9.66667C8.18229 10.3233 8.31162 10.9735 8.56289 11.5801C8.81417 12.1867 9.18247 12.7379 9.64676 13.2022C10.1111 13.6665 10.6622 14.0348 11.2689 14.2861C11.8755 14.5373 12.5257 14.6667 13.1823 14.6667C14.5084 14.6667 15.7801 14.1399 16.7178 13.2022C17.6555 12.2645 18.1823 10.9928 18.1823 9.66667C18.1823 8.34059 17.6555 7.06882 16.7178 6.13114C15.7801 5.19346 14.5084 4.66667 13.1823 4.66667ZM25.2656 9.66667C25.2656 8.89312 25.5729 8.15126 26.1199 7.60428C26.6669 7.0573 27.4087 6.75001 28.1823 6.75001C28.9558 6.75001 29.6977 7.0573 30.2447 7.60428C30.7917 8.15126 31.099 8.89312 31.099 9.66667C31.099 10.4402 30.7917 11.1821 30.2447 11.7291C29.6977 12.276 28.9558 12.5833 28.1823 12.5833C27.4087 12.5833 26.6669 12.276 26.1199 11.7291C25.5729 11.1821 25.2656 10.4402 25.2656 9.66667ZM28.1823 4.66667C27.5257 4.66667 26.8755 4.796 26.2689 5.04727C25.6622 5.29855 25.1111 5.66685 24.6468 6.13114C24.1825 6.59543 23.8142 7.14663 23.5629 7.75325C23.3116 8.35988 23.1823 9.01006 23.1823 9.66667C23.1823 10.3233 23.3116 10.9735 23.5629 11.5801C23.8142 12.1867 24.1825 12.7379 24.6468 13.2022C25.1111 13.6665 25.6622 14.0348 26.2689 14.2861C26.8755 14.5373 27.5257 14.6667 28.1823 14.6667C29.5084 14.6667 30.7801 14.1399 31.7178 13.2022C32.6555 12.2645 33.1823 10.9928 33.1823 9.66667C33.1823 8.34059 32.6555 7.06882 31.7178 6.13114C30.7801 5.19346 29.5084 4.66667 28.1823 4.66667ZM4.01562 19.205C4.01562 18.8279 4.0899 18.4545 4.23422 18.1061C4.37853 17.7577 4.59006 17.4411 4.85672 17.1744C5.12338 16.9078 5.43995 16.6962 5.78835 16.5519C6.13676 16.4076 6.51018 16.3333 6.88729 16.3333H14.9073C14.5342 16.9795 14.2722 17.6838 14.1323 18.4167H6.88729C6.78377 18.4167 6.68125 18.4371 6.58561 18.4767C6.48996 18.5163 6.40306 18.5744 6.32986 18.6476C6.25665 18.7208 6.19858 18.8077 6.15897 18.9033C6.11935 18.999 6.09896 19.1015 6.09896 19.205V19.5625C6.09896 19.7875 6.10146 21.1733 6.94813 22.4833C7.69479 23.64 9.21729 24.9167 12.5181 25.0683C11.6584 25.4583 10.9409 26.1056 10.4648 26.9208C7.77979 26.3942 6.14813 25.085 5.19813 23.6142C4.01563 21.7833 4.01562 19.8917 4.01562 19.5642V19.205ZM28.8465 25.0683C29.7062 25.4583 30.4237 26.1056 30.8998 26.9208C33.5848 26.3942 35.2165 25.085 36.1665 23.6142C37.349 21.7833 37.349 19.8917 37.349 19.5642V19.2058C37.3491 18.8287 37.2749 18.4551 37.1306 18.1066C36.9863 17.7581 36.7748 17.4415 36.5082 17.1747C36.2415 16.908 35.9249 16.6964 35.5764 16.552C35.228 16.4076 34.8545 16.3333 34.4773 16.3333H26.4573C26.824 16.9692 27.0906 17.6708 27.2323 18.4167H34.4773C34.9123 18.4167 35.2656 18.77 35.2656 19.205V19.5625C35.2656 19.7875 35.2631 21.1733 34.4165 22.4833C33.6698 23.64 32.1473 24.9167 28.8465 25.0683ZM20.6823 16.75C19.9087 16.75 19.1669 17.0573 18.6199 17.6043C18.0729 18.1513 17.7656 18.8931 17.7656 19.6667C17.7656 20.4402 18.0729 21.1821 18.6199 21.7291C19.1669 22.276 19.9087 22.5833 20.6823 22.5833C21.4558 22.5833 22.1977 22.276 22.7447 21.7291C23.2917 21.1821 23.599 20.4402 23.599 19.6667C23.599 18.8931 23.2917 18.1513 22.7447 17.6043C22.1977 17.0573 21.4558 16.75 20.6823 16.75ZM15.6823 19.6667C15.6823 18.3406 16.2091 17.0688 17.1468 16.1311C18.0844 15.1935 19.3562 14.6667 20.6823 14.6667C22.0084 14.6667 23.2801 15.1935 24.2178 16.1311C25.1555 17.0688 25.6823 18.3406 25.6823 19.6667C25.6823 20.9928 25.1555 22.2645 24.2178 23.2022C23.2801 24.1399 22.0084 24.6667 20.6823 24.6667C19.3562 24.6667 18.0844 24.1399 17.1468 23.2022C16.2091 22.2645 15.6823 20.9928 15.6823 19.6667ZM11.5156 29.205C11.5156 28.4434 11.8182 27.713 12.3567 27.1744C12.8953 26.6359 13.6257 26.3333 14.3873 26.3333H26.9773C27.7389 26.3333 28.4693 26.6359 29.0079 27.1744C29.5464 27.713 29.849 28.4434 29.849 29.205V29.5642C29.849 29.8925 29.849 31.7833 28.6665 33.6142C27.4306 35.5275 25.0431 37.1667 20.6823 37.1667C16.3215 37.1667 13.934 35.5275 12.6981 33.6142C11.5156 31.7833 11.5156 29.8917 11.5156 29.5642V29.205ZM14.3873 28.4167C14.1782 28.4167 13.9777 28.4997 13.8299 28.6476C13.682 28.7954 13.599 28.9959 13.599 29.205V29.5625C13.599 29.7875 13.6015 31.1733 14.4481 32.4833C15.2431 33.715 16.9181 35.0833 20.6823 35.0833C24.4465 35.0833 26.1215 33.715 26.9165 32.4833C27.7631 31.1733 27.7656 29.7875 27.7656 29.5625V29.205C27.7656 28.9959 27.6826 28.7954 27.5347 28.6476C27.3869 28.4997 27.1864 28.4167 26.9773 28.4167H14.3873Z" fill="#706DB4"/>
</svg>
