<svg width="33" height="33" viewBox="0 0 33 33" fill="none" xmlns="http://www.w3.org/2000/svg">
<g clip-path="url(#clip0_1874_2807)">
<path d="M25.25 16.25C24.1875 16.25 23.1875 16.4167 22.25 16.75C21.3125 17.0833 20.4427 17.5417 19.6406 18.125L16.6875 16.1875L6.375 31.8281C6.16667 32.1302 5.88542 32.2812 5.53125 32.2812C5.34375 32.2812 5.16146 32.224 4.98438 32.1094C4.69271 31.9115 4.54688 31.6354 4.54688 31.2812C4.54688 31.0833 4.59896 30.901 4.70312 30.7344L15.0312 15.0781L9.92188 11.7188L9.60938 12.2031C9.41146 12.4948 9.16667 12.7135 8.875 12.8594C8.58333 13.0052 8.26562 13.0833 7.92188 13.0938C7.52604 13.0938 7.16667 12.9844 6.84375 12.7656C6.55208 12.5677 6.32812 12.3229 6.17188 12.0312C6.01562 11.7396 5.9375 11.4219 5.9375 11.0781C5.9375 10.6927 6.04688 10.3333 6.26562 10L11.7812 1.64062C11.9792 1.34896 12.224 1.13021 12.5156 0.984375C12.8073 0.838542 13.1198 0.760417 13.4531 0.75C13.8385 0.75 14.2031 0.859375 14.5469 1.07812C14.8385 1.27604 15.0625 1.52083 15.2188 1.8125C15.375 2.10417 15.4531 2.42188 15.4531 2.76562C15.4531 3.16146 15.3438 3.52083 15.125 3.84375L14.7969 4.32812L26.4844 12.0312L26.7969 11.5625C26.9948 11.2708 27.2396 11.0469 27.5312 10.8906C27.8229 10.7344 28.1406 10.6562 28.4844 10.6562C28.8698 10.6562 29.2344 10.7656 29.5781 10.9844C29.8698 11.1823 30.0885 11.4271 30.2344 11.7188C30.3802 12.0104 30.4583 12.3281 30.4688 12.6719C30.4688 13.0573 30.3594 13.4219 30.1406 13.7656L28.1719 16.75C27.7031 16.6042 27.2292 16.4844 26.75 16.3906C26.2708 16.2969 25.7708 16.25 25.25 16.25ZM30.2031 20.7969C30.8594 21.4635 31.3646 22.2188 31.7188 23.0625C32.0729 23.9062 32.25 24.8021 32.25 25.75C32.25 26.6979 32.0729 27.5938 31.7188 28.4375C31.3646 29.2812 30.8594 30.0312 30.2031 30.6875C29.5365 31.3542 28.7812 31.8646 27.9375 32.2188C27.0938 32.5729 26.1979 32.75 25.25 32.75C24.3021 32.75 23.4062 32.5729 22.5625 32.2188C21.7188 31.8646 20.9688 31.3594 20.3125 30.7031C19.6458 30.0365 19.1354 29.2812 18.7812 28.4375C18.4271 27.5938 18.25 26.6979 18.25 25.75C18.25 24.8021 18.4271 23.9062 18.7812 23.0625C19.1354 22.2188 19.6406 21.4688 20.2969 20.8125C20.9635 20.1458 21.7188 19.6354 22.5625 19.2812C23.4062 18.9271 24.3021 18.75 25.25 18.75C26.1979 18.75 27.0938 18.9271 27.9375 19.2812C28.7812 19.6354 29.5365 20.1406 30.2031 20.7969ZM20.25 25.75C20.25 26.4375 20.3802 27.0833 20.6406 27.6875C20.901 28.2917 21.2552 28.8229 21.7031 29.2812C22.151 29.7396 22.6823 30.099 23.2969 30.3594C23.9115 30.6198 24.5625 30.75 25.25 30.75C25.7604 30.75 26.2448 30.6771 26.7031 30.5312C27.1615 30.3854 27.5938 30.1823 28 29.9219L21.0781 23C20.8177 23.3958 20.6146 23.8229 20.4688 24.2812C20.3229 24.7396 20.25 25.2292 20.25 25.75ZM29.4219 28.5C29.6823 28.1042 29.8854 27.6771 30.0312 27.2188C30.1771 26.7604 30.25 26.2708 30.25 25.75C30.25 25.0625 30.1198 24.4167 29.8594 23.8125C29.599 23.2083 29.2396 22.6823 28.7812 22.2344C28.3229 21.7865 27.7917 21.4271 27.1875 21.1562C26.5833 20.8854 25.9375 20.75 25.25 20.75C24.7396 20.75 24.2552 20.8229 23.7969 20.9688C23.3385 21.1146 22.9062 21.3177 22.5 21.5781L29.4219 28.5Z" fill="white"/>
</g>
<defs>
<clipPath id="clip0_1874_2807">
<rect width="32" height="32" fill="white" transform="translate(0.25 0.75)"/>
</clipPath>
</defs>
</svg>
