<svg width="37" height="37" viewBox="0 0 37 37" fill="none" xmlns="http://www.w3.org/2000/svg">
<path d="M5.59767 20C5.5945 16.8059 6.79032 13.727 8.94854 11.3723C11.1068 9.01766 14.0702 7.55884 17.2525 7.28447C20.4348 7.01011 23.6041 7.94017 26.1335 9.89067C28.6629 11.8412 30.3681 14.67 30.9117 17.8175C31.5388 18.2155 32.0743 18.7421 32.4829 19.3624C32.8914 19.9827 33.1637 20.6827 33.2817 21.416C33.3257 20.949 33.3477 20.477 33.3477 20C33.3477 11.7155 26.6322 5 18.3477 5C10.0632 5 3.34767 11.7155 3.34767 20C3.34524 21.968 3.73129 23.9172 4.48367 25.7358C5.23606 27.5543 6.33999 29.2065 7.73217 30.5975C7.94425 30.8025 8.22837 30.9161 8.52335 30.9136C8.81832 30.9112 9.10054 30.793 9.30923 30.5845C9.51791 30.3761 9.63636 30.094 9.63906 29.799C9.64176 29.504 9.5285 29.2198 9.32367 29.0075C8.14021 27.8253 7.20185 26.421 6.56245 24.8753C5.92304 23.3296 5.59518 21.6728 5.59767 20ZM27.6327 17.021C27.1811 15.6166 26.4168 14.333 25.3973 13.2669C24.3777 12.2007 23.1296 11.3798 21.7468 10.866C20.364 10.3522 18.8826 10.1588 17.4143 10.3005C15.9459 10.4421 14.5288 10.9152 13.2698 11.6839C12.0107 12.4526 10.9426 13.497 10.1457 14.7385C9.34878 15.9799 8.84397 17.3859 8.66927 18.8507C8.49456 20.3155 8.65452 21.8008 9.13708 23.1949C9.61965 24.5889 10.4122 25.8552 11.4552 26.8985C11.5598 27.003 11.6839 27.0859 11.8205 27.1424C11.9572 27.1989 12.1036 27.228 12.2514 27.2279C12.3993 27.2278 12.5457 27.1986 12.6823 27.142C12.8188 27.0853 12.9429 27.0023 13.0474 26.8978C13.1519 26.7932 13.2348 26.669 13.2913 26.5324C13.3478 26.3957 13.3769 26.2493 13.3768 26.1015C13.3767 25.9536 13.3475 25.8072 13.2909 25.6707C13.2343 25.5341 13.1513 25.41 13.0467 25.3055C12.2446 24.5034 11.635 23.5299 11.2636 22.4582C10.8921 21.3865 10.7686 20.2444 10.9024 19.1181C11.0361 17.9917 11.4235 16.9104 12.0356 15.9554C12.6476 15.0004 13.4682 14.1967 14.4358 13.6048C15.4033 13.0128 16.4925 12.648 17.6214 12.5378C18.7503 12.4276 19.8895 12.5749 20.9532 12.9685C22.017 13.3622 22.9776 13.9921 23.7627 14.8107C24.5479 15.6293 25.1372 16.6153 25.4862 17.6945C26.1449 17.3168 26.8778 17.0865 27.6342 17.0195M14.5977 20C14.5977 19.0054 14.9928 18.0516 15.696 17.3484C16.3993 16.6451 17.3531 16.25 18.3477 16.25C19.3422 16.25 20.2961 16.6451 20.9993 17.3484C21.7026 18.0516 22.0977 19.0054 22.0977 20C22.0977 20.9946 21.7026 21.9484 20.9993 22.6517C20.2961 23.3549 19.3422 23.75 18.3477 23.75C17.3531 23.75 16.3993 23.3549 15.696 22.6517C14.9928 21.9484 14.5977 20.9946 14.5977 20ZM18.3477 18.5C17.9498 18.5 17.5683 18.658 17.287 18.9393C17.0057 19.2206 16.8477 19.6022 16.8477 20C16.8477 20.3978 17.0057 20.7794 17.287 21.0607C17.5683 21.342 17.9498 21.5 18.3477 21.5C18.7455 21.5 19.127 21.342 19.4083 21.0607C19.6896 20.7794 19.8477 20.3978 19.8477 20C19.8477 19.6022 19.6896 19.2206 19.4083 18.9393C19.127 18.658 18.7455 18.5 18.3477 18.5ZM31.8477 22.25C31.8477 23.2446 31.4526 24.1984 30.7493 24.9017C30.0461 25.6049 29.0922 26 28.0977 26C27.1031 26 26.1493 25.6049 25.446 24.9017C24.7428 24.1984 24.3477 23.2446 24.3477 22.25C24.3477 21.2554 24.7428 20.3016 25.446 19.5984C26.1493 18.8951 27.1031 18.5 28.0977 18.5C29.0922 18.5 30.0461 18.8951 30.7493 19.5984C31.4526 20.3016 31.8477 21.2554 31.8477 22.25ZM34.8477 30.3125C34.8477 32.6465 32.9187 35 28.0977 35C23.2767 35 21.3477 32.6555 21.3477 30.3125V30.158C21.3477 28.688 22.5387 27.5 24.0072 27.5H32.1882C33.6582 27.5 34.8477 28.6895 34.8477 30.158V30.3125Z" fill="#706DB4"/>
</svg>
