<svg width="27" height="27" viewBox="0 0 27 27" fill="none" xmlns="http://www.w3.org/2000/svg">
<path fill-rule="evenodd" clip-rule="evenodd" d="M13.5217 13.0406C13.5217 13.0406 14.3559 7.02404 16.7831 3.37366C17.0338 2.83889 17.3799 2.33167 17.8207 1.879C19.7784 -0.131761 22.8619 -0.304837 24.7078 1.49243C26.5538 3.28969 26.4632 6.37671 24.5054 8.38747C24.2374 8.66271 23.9484 8.90352 23.6442 9.10956C20.1631 11.9382 13.5217 13.0406 13.5217 13.0406ZM12.985 13.5172C12.985 13.5172 6.99449 14.5116 3.41011 17.0347C2.88179 17.2997 2.38359 17.6594 1.94253 18.1124C-0.0152091 20.1232 -0.105829 23.2102 1.74012 25.0075C3.58607 26.8047 6.66956 26.6317 8.62729 24.6209C8.89509 24.3459 9.12794 24.0507 9.32569 23.7414C12.0605 20.186 12.985 13.5172 12.985 13.5172ZM3.36895 9.75283C7.01905 12.1815 13.0386 13.016 13.0386 13.016C13.0386 13.016 11.9389 6.39075 9.11784 2.90618C8.90998 2.59758 8.66641 2.30433 8.38747 2.03275C6.37671 0.0750141 3.28969 -0.0156068 1.49243 1.83034C-0.304838 3.67629 -0.13176 6.75978 1.879 8.71752C2.33035 9.15695 2.83591 9.50232 3.36895 9.75283ZM13.46 13.5229C13.46 13.5229 19.4795 14.3575 23.1297 16.7861C23.6627 17.0366 24.1683 17.382 24.6196 17.8214C26.6304 19.7791 26.8034 22.8626 25.0062 24.7086C23.2089 26.5545 20.1219 26.4639 18.1111 24.5062C17.8322 24.2346 17.5886 23.9413 17.3808 23.6327C14.5597 20.1482 13.46 13.5229 13.46 13.5229Z" fill="white"/>
<ellipse cx="13.2291" cy="13.2741" rx="0.291558" ry="7.37226" fill="url(#paint0_radial_1874_2731)"/>
<ellipse cx="13.1887" cy="13.2741" rx="0.291558" ry="7.37225" transform="rotate(-90 13.1887 13.2741)" fill="url(#paint1_radial_1874_2731)"/>
<defs>
<radialGradient id="paint0_radial_1874_2731" cx="0" cy="0" r="1" gradientUnits="userSpaceOnUse" gradientTransform="translate(13.2291 13.2741) rotate(90) scale(7.37226 0.291558)">
<stop stop-color="white"/>
<stop offset="1" stop-color="white" stop-opacity="0"/>
</radialGradient>
<radialGradient id="paint1_radial_1874_2731" cx="0" cy="0" r="1" gradientUnits="userSpaceOnUse" gradientTransform="translate(13.1887 13.2741) rotate(90) scale(7.37225 0.291558)">
<stop stop-color="white"/>
<stop offset="1" stop-color="white" stop-opacity="0"/>
</radialGradient>
</defs>
</svg>
