<svg width="41" height="41" viewBox="0 0 41 41" fill="none" xmlns="http://www.w3.org/2000/svg">
<path d="M25.3477 32.1666H15.3477M25.3477 32.1666V14.8333C25.3477 14.5681 25.2423 14.3137 25.0548 14.1262C24.8672 13.9387 24.6129 13.8333 24.3477 13.8333H16.3477C16.0824 13.8333 15.8281 13.9387 15.6405 14.1262C15.453 14.3137 15.3477 14.5681 15.3477 14.8333V32.1666M25.3477 32.1666H34.3477C34.6129 32.1666 34.8672 32.0613 35.0548 31.8738C35.2423 31.6862 35.3477 31.4319 35.3477 31.1666V25.6666C35.3477 25.4014 35.2423 25.1471 35.0548 24.9595C34.8672 24.772 34.6129 24.6666 34.3477 24.6666H26.3477C26.0824 24.6666 25.8281 24.772 25.6405 24.9595C25.453 25.1471 25.3477 25.4014 25.3477 25.6666V32.1666ZM15.3477 32.1666V22.3333C15.3477 22.0681 15.2423 21.8137 15.0548 21.6262C14.8672 21.4387 14.6129 21.3333 14.3477 21.3333H6.34766C6.08244 21.3333 5.82809 21.4387 5.64055 21.6262C5.45301 21.8137 5.34766 22.0681 5.34766 22.3333V31.1666C5.34766 31.4319 5.45301 31.6862 5.64055 31.8738C5.82809 32.0613 6.08244 32.1666 6.34766 32.1666H15.3477ZM25.3477 8.83331H15.3477" stroke="#706DB4" stroke-width="2" stroke-linecap="round" stroke-linejoin="round"/>
</svg>
