<svg width="775" height="775" viewBox="0 0 775 775" fill="none" xmlns="http://www.w3.org/2000/svg">
<rect width="775" height="775" rx="387.5" fill="#6A67AF"/>
<path d="M152.696 545.892L152.722 545.918L152.748 545.942C156.529 549.535 161.062 551.377 166.216 551.377C171.506 551.377 176.128 549.555 179.931 545.942C183.77 542.295 185.713 537.71 185.713 532.372V409.459L334.852 545.733L334.853 545.734C338.979 549.502 343.494 551.561 348.339 551.377C353.515 551.363 358.043 549.404 361.801 545.647C365.549 541.898 367.532 537.439 367.532 532.372C367.532 526.66 365.662 521.898 361.676 518.489L209.941 379.58L349.618 255.852C353.56 252.491 355.612 247.804 355.978 242.133L355.984 242.043V241.953C355.984 236.866 353.906 232.208 350.095 228.034L350.007 227.938L349.911 227.851C345.873 224.18 341.294 222.211 336.242 222.211C331.643 222.211 327.335 224.127 323.362 227.558L323.345 227.573L323.328 227.588L185.713 350.467V241.216C185.713 235.878 183.77 231.294 179.931 227.647C176.128 224.034 171.506 222.211 166.216 222.211C161.062 222.211 156.529 224.054 152.748 227.647L152.722 227.671L152.696 227.696C149.037 231.356 147.211 235.925 147.211 241.216V532.372C147.211 537.664 149.037 542.233 152.696 545.892ZM397.22 545.942L397.245 545.966L397.27 545.988C401.216 549.559 405.894 551.377 411.181 551.377C416.329 551.377 420.746 549.535 424.236 545.866C427.897 542.19 429.694 537.539 429.694 532.127V436.795C429.694 424.714 431.996 413.209 436.598 402.256C441.377 391.109 447.895 381.419 456.15 373.164C464.414 364.9 473.944 358.467 484.756 353.856C495.549 349.253 506.806 346.954 518.552 346.954H520.518C526.033 346.954 530.769 345.278 534.475 341.767L534.478 341.764C538.339 338.096 540.26 333.42 540.26 327.949C540.26 322.419 538.489 317.73 534.775 314.182C531.191 310.432 526.314 308.698 520.518 308.698H518.552C501.472 308.698 485.208 312.049 469.785 318.753C454.389 325.281 440.744 334.491 428.865 346.37L428.858 346.377L428.851 346.384C417.137 358.265 407.935 371.988 401.248 387.535L401.243 387.547L401.238 387.559C394.703 403.141 391.438 419.561 391.438 436.795V532.127C391.438 537.597 393.359 542.274 397.22 545.942Z" fill="white" stroke="white" stroke-width="5.5773"/>
<g clip-path="url(#clip0_1733_3124)">
<path d="M562.111 402.451C562.448 400.045 560.58 397.896 558.15 397.896H541.678C539.248 397.896 537.38 400.045 537.717 402.451L544.353 449.853C544.925 453.94 539.684 456.111 537.198 452.816L508.373 414.606C506.91 412.666 504.069 412.468 502.351 414.186L490.704 425.834C488.986 427.552 489.184 430.392 491.123 431.855L529.334 460.681C532.628 463.166 530.457 468.408 526.37 467.835L478.969 461.199C476.562 460.862 474.414 462.731 474.414 465.16V481.632C474.414 484.062 476.562 485.931 478.969 485.594L526.37 478.958C530.457 478.385 532.629 483.627 529.334 486.112L491.123 514.938C489.184 516.401 488.986 519.241 490.704 520.959L502.351 532.607C504.069 534.325 506.91 534.127 508.373 532.187L537.198 493.977C539.684 490.682 544.925 492.853 544.353 496.941L537.717 544.342C537.38 546.748 539.248 548.896 541.678 548.896H558.15C560.58 548.896 562.448 546.748 562.111 544.342L555.475 496.941C554.903 492.853 560.144 490.682 562.63 493.977L591.455 532.187C592.918 534.127 595.759 534.325 597.477 532.607L609.124 520.959C610.842 519.241 610.644 516.401 608.705 514.938L570.494 486.112C567.2 483.627 569.371 478.385 573.458 478.958L620.859 485.594C623.266 485.931 625.414 484.062 625.414 481.632V465.16C625.414 462.731 623.266 460.862 620.859 461.199L573.458 467.835C569.371 468.408 567.2 463.166 570.495 460.681L608.705 431.855C610.645 430.392 610.842 427.552 609.124 425.834L597.477 414.186C595.759 412.468 592.919 412.666 591.455 414.606L562.63 452.816C560.144 456.111 554.903 453.94 555.475 449.853L562.111 402.451Z" fill="white"/>
</g>
<defs>
<clipPath id="clip0_1733_3124">
<rect width="150.587" height="150.587" fill="white" transform="translate(474.414 397.896)"/>
</clipPath>
</defs>
</svg>
