<svg width="33" height="33" viewBox="0 0 33 33" fill="none" xmlns="http://www.w3.org/2000/svg">
<g clip-path="url(#clip0_1907_1267)">
<path d="M19.2292 18.7171C18.3469 19.7229 17.2726 20.5457 16.0634 21.1423V24.5709C16.0634 24.874 15.943 25.1647 15.7287 25.379C15.5144 25.5933 15.2237 25.7137 14.9206 25.7137H8.06344C7.76033 25.7137 7.46964 25.5933 7.25532 25.379C7.04099 25.1647 6.92058 24.874 6.92058 24.5709V21.1423C4.51223 19.9402 2.67108 17.8419 1.79222 15.2977C0.91337 12.7535 1.06686 9.96617 2.21974 7.53386C3.37263 5.10155 5.43304 3.21809 7.95882 2.28766C10.4846 1.35723 13.2745 1.45398 15.7297 2.55715M6.92058 31.3571H16.0634" stroke="#706DB4" stroke-width="2.28571" stroke-linecap="round" stroke-linejoin="round"/>
<path d="M16.9181 9.492C16.1158 9.35257 16.1158 8.20057 16.9181 8.06115C18.3382 7.81276 19.6523 7.14771 20.6934 6.15055C21.7345 5.15339 22.4556 3.86917 22.765 2.46115L22.813 2.23715C22.9867 1.444 24.1158 1.43943 24.2964 2.23029L24.3558 2.48857C24.6751 3.89115 25.4021 5.16796 26.4453 6.15832C27.4886 7.14868 28.8014 7.80834 30.2187 8.05429C31.0255 8.196 31.0255 9.35257 30.2187 9.49429C28.8018 9.74065 27.4895 10.4005 26.4467 11.3908C25.4039 12.3812 24.6772 13.6577 24.3581 15.06L24.2987 15.3183C24.1181 16.1091 22.989 16.1046 22.8153 15.3114L22.7695 15.0897C22.4599 13.6811 21.7381 12.3964 20.6961 11.3992C19.6541 10.402 18.339 9.73956 16.9181 9.492Z" stroke="#706DB4" stroke-width="2.28571" stroke-linecap="round" stroke-linejoin="round"/>
</g>
<defs>
<clipPath id="clip0_1907_1267">
<rect width="32" height="32" fill="white" transform="translate(0.015625 0.5)"/>
</clipPath>
</defs>
</svg>
