<svg width="27" height="27" viewBox="0 0 27 27" fill="none" xmlns="http://www.w3.org/2000/svg">
<path fill-rule="evenodd" clip-rule="evenodd" d="M11.3202 2.06533C12.2807 3.02576 13.2042 4.55278 13.8753 6.19877C14.5542 4.43053 15.5356 2.7641 16.5589 1.74082C18.9696 -0.669868 22.5259 0.104921 24.6254 2.20442C26.7249 4.30392 27.7779 7.58212 25.089 10.271C23.8872 11.4728 22.0799 12.5229 20.23 13.1847C22.2427 13.8584 24.2136 14.9587 25.3671 16.1123C27.7778 18.523 27.003 22.0793 24.9035 24.1788C22.804 26.2783 19.5258 27.3313 16.837 24.6424C15.6004 23.4058 14.5243 21.528 13.8668 19.6225C13.2031 21.4312 12.172 23.1878 10.9956 24.3642C8.30673 27.0531 5.02853 26.0001 2.92903 23.9006C0.829531 21.8011 0.0547411 18.2448 2.46543 15.8341C3.46999 14.8295 5.09441 13.8653 6.82648 13.1881C5.27382 12.5309 3.81273 11.6181 2.79009 10.5955C0.10124 7.90662 1.15419 4.62842 3.25368 2.52892C5.35318 0.429423 8.90954 -0.345366 11.3202 2.06533ZM17.6588 9.5467C15.5903 11.5315 12.3313 11.5542 10.2353 9.59826C12.2201 11.6668 12.2428 14.9258 10.2869 17.0218C12.3555 15.037 15.6144 15.0143 17.7104 16.9702C15.7256 14.9016 15.7029 11.6427 17.6588 9.5467Z" fill="white"/>
</svg>
