<svg width="29" height="29" viewBox="0 0 29 29" fill="none" xmlns="http://www.w3.org/2000/svg">
<path fill-rule="evenodd" clip-rule="evenodd" d="M21.1411 1.93322C20.8631 1.48893 20.4534 1.14238 19.9692 0.941815C19.4849 0.741253 18.9502 0.696655 18.4394 0.81423L14.8143 1.64692C14.4428 1.73231 14.0567 1.73231 13.6852 1.64692L10.0601 0.81423C9.54934 0.696655 9.01462 0.741253 8.53038 0.941815C8.04614 1.14238 7.63647 1.48893 7.35841 1.93322L5.38254 5.08655C5.18092 5.40914 4.90873 5.68133 4.58614 5.88496L1.43281 7.86084C0.989287 8.13865 0.643248 8.54765 0.442729 9.03106C0.242209 9.51447 0.197157 10.0483 0.313825 10.5585L1.14651 14.1877C1.23159 14.5585 1.23159 14.9438 1.14651 15.3147L0.313825 18.9418C0.196704 19.4523 0.241529 19.9866 0.44207 20.4704C0.642611 20.9543 0.988904 21.3636 1.43281 21.6415L4.58614 23.6174C4.90873 23.819 5.18092 24.0912 5.38456 24.4138L7.36043 27.5671C7.929 28.4764 9.01371 28.9261 10.0601 28.6861L13.6852 27.8534C14.0567 27.768 14.4428 27.768 14.8143 27.8534L18.4414 28.6861C18.9519 28.8032 19.4862 28.7584 19.97 28.5579C20.4539 28.3573 20.8632 28.011 21.1411 27.5671L23.117 24.4138C23.3186 24.0912 23.5908 23.819 23.9134 23.6174L27.0687 21.6415C27.5127 21.3632 27.8588 20.9534 28.059 20.4692C28.2592 19.985 28.3035 19.4504 28.1857 18.9398L27.355 15.3147C27.2697 14.9432 27.2697 14.5572 27.355 14.1856L28.1877 10.5585C28.305 10.0482 28.2605 9.5141 28.0604 9.03029C27.8602 8.54649 27.5143 8.13704 27.0708 7.85882L23.9154 5.88295C23.5933 5.68096 23.321 5.40869 23.119 5.08655L21.1411 1.93322ZM20.127 10.2541C20.2517 10.0247 20.2826 9.75601 20.2132 9.50438C20.1438 9.25275 19.9795 9.03786 19.7548 8.90491C19.5302 8.77196 19.2628 8.73132 19.0088 8.79155C18.7548 8.85177 18.5341 9.00816 18.3931 9.22781L13.1207 18.1515L9.93713 15.103C9.84268 15.006 9.72967 14.9291 9.60484 14.8767C9.48001 14.8244 9.34591 14.7977 9.21054 14.7983C9.07518 14.7989 8.94131 14.8267 8.81694 14.8802C8.69257 14.9336 8.58024 15.0115 8.48664 15.1093C8.39304 15.2071 8.3201 15.3228 8.27216 15.4494C8.22423 15.576 8.20228 15.7109 8.20763 15.8462C8.21297 15.9814 8.24551 16.1142 8.30329 16.2367C8.36107 16.3591 8.44291 16.4686 8.54394 16.5587L12.6449 20.4883C12.7546 20.5932 12.8867 20.672 13.0312 20.7188C13.1757 20.7655 13.3288 20.779 13.4793 20.7583C13.6297 20.7376 13.7735 20.6831 13.8999 20.599C14.0264 20.5149 14.1322 20.4033 14.2094 20.2725L20.127 10.2541Z" fill="white"/>
</svg>
